<svg id="visual" viewBox="0 0 960 540" width="960" height="540" xmlns="http://www.w3.org/2000/svg" xmlns:xlink="http://www.w3.org/1999/xlink" version="1.1"><path d="M0 168L22.8 169.8C45.7 171.7 91.3 175.3 137 170C182.7 164.7 228.3 150.3 274 145C319.7 139.7 365.3 143.3 411.2 154.2C457 165 503 183 548.8 183.8C594.7 184.7 640.3 168.3 686 159.3C731.7 150.3 777.3 148.7 823 146.8C868.7 145 914.3 143 937.2 142L960 141L960 0L937.2 0C914.3 0 868.7 0 823 0C777.3 0 731.7 0 686 0C640.3 0 594.7 0 548.8 0C503 0 457 0 411.2 0C365.3 0 319.7 0 274 0C228.3 0 182.7 0 137 0C91.3 0 45.7 0 22.8 0L0 0Z" fill="#6198ff"></path><path d="M0 266L22.8 267.7C45.7 269.3 91.3 272.7 137 267.2C182.7 261.7 228.3 247.3 274 247.3C319.7 247.3 365.3 261.7 411.2 272.5C457 283.3 503 290.7 548.8 280.8C594.7 271 640.3 244 686 234.2C731.7 224.3 777.3 231.7 823 235.3C868.7 239 914.3 239 937.2 239L960 239L960 139L937.2 140C914.3 141 868.7 143 823 144.8C777.3 146.7 731.7 148.3 686 157.3C640.3 166.3 594.7 182.7 548.8 181.8C503 181 457 163 411.2 152.2C365.3 141.3 319.7 137.7 274 143C228.3 148.3 182.7 162.7 137 168C91.3 173.3 45.7 169.7 22.8 167.8L0 166Z" fill="#3c80ff"></path><path d="M0 314L22.8 322.2C45.7 330.3 91.3 346.7 137 343.2C182.7 339.7 228.3 316.3 274 315.3C319.7 314.3 365.3 335.7 411.2 351.8C457 368 503 379 548.8 362.8C594.7 346.7 640.3 303.3 686 293.3C731.7 283.3 777.3 306.7 823 315.7C868.7 324.7 914.3 319.3 937.2 316.7L960 314L960 237L937.2 237C914.3 237 868.7 237 823 233.3C777.3 229.7 731.7 222.3 686 232.2C640.3 242 594.7 269 548.8 278.8C503 288.7 457 281.3 411.2 270.5C365.3 259.7 319.7 245.3 274 245.3C228.3 245.3 182.7 259.7 137 265.2C91.3 270.7 45.7 267.3 22.8 265.7L0 264Z" fill="#0066ff"></path><path d="M0 374L22.8 386.5C45.7 399 91.3 424 137 422.2C182.7 420.3 228.3 391.7 274 385.3C319.7 379 365.3 395 411.2 410.3C457 425.7 503 440.3 548.8 426C594.7 411.7 640.3 368.3 686 357.5C731.7 346.7 777.3 368.3 823 378.2C868.7 388 914.3 386 937.2 385L960 384L960 312L937.2 314.7C914.3 317.3 868.7 322.7 823 313.7C777.3 304.7 731.7 281.3 686 291.3C640.3 301.3 594.7 344.7 548.8 360.8C503 377 457 366 411.2 349.8C365.3 333.7 319.7 312.3 274 313.3C228.3 314.3 182.7 337.7 137 341.2C91.3 344.7 45.7 328.3 22.8 320.2L0 312Z" fill="#0059dd"></path><path d="M0 541L22.8 541C45.7 541 91.3 541 137 541C182.7 541 228.3 541 274 541C319.7 541 365.3 541 411.2 541C457 541 503 541 548.8 541C594.7 541 640.3 541 686 541C731.7 541 777.3 541 823 541C868.7 541 914.3 541 937.2 541L960 541L960 382L937.2 383C914.3 384 868.7 386 823 376.2C777.3 366.3 731.7 344.7 686 355.5C640.3 366.3 594.7 409.7 548.8 424C503 438.3 457 423.7 411.2 408.3C365.3 393 319.7 377 274 383.3C228.3 389.7 182.7 418.3 137 420.2C91.3 422 45.7 397 22.8 384.5L0 372Z" fill="#004cbb"></path></svg>